<?xml version="1.0" encoding="UTF-8" standalone="no"?>
<svg
   version="1.2"
   viewBox="0 0 5906 5906"
   width="5906"
   height="5906"
   id="svg1"
   sodipodi:docname="Bitspire mini light with background.svg"
   inkscape:version="1.4.2 (f4327f4, 2025-05-13)"
   xmlns:inkscape="http://www.inkscape.org/namespaces/inkscape"
   xmlns:sodipodi="http://sodipodi.sourceforge.net/DTD/sodipodi-0.dtd"
   xmlns="http://www.w3.org/2000/svg"
   xmlns:svg="http://www.w3.org/2000/svg"
   xmlns:rdf="http://www.w3.org/1999/02/22-rdf-syntax-ns#"
   xmlns:cc="http://creativecommons.org/ns#"
   xmlns:dc="http://purl.org/dc/elements/1.1/">
  <defs
     id="defs1" />
  <sodipodi:namedview
     id="namedview1"
     pagecolor="#505050"
     bordercolor="#eeeeee"
     borderopacity="1"
     inkscape:showpageshadow="0"
     inkscape:pageopacity="0"
     inkscape:pagecheckerboard="0"
     inkscape:deskcolor="#505050"
     showgrid="false"
     inkscape:zoom="0.1366407"
     inkscape:cx="2953"
     inkscape:cy="2953"
     inkscape:window-width="1920"
     inkscape:window-height="1009"
     inkscape:window-x="-8"
     inkscape:window-y="-8"
     inkscape:window-maximized="1"
     inkscape:current-layer="svg1" />
  <title
     id="title1">logo bitsprite wite</title>
  <style
     id="style1">
		.s0 { fill: #d1d1d1 } 
	</style>
  <rect
     style="fill:#000000"
     id="rect1"
     width="5884.0444"
     height="5884.0444"
     x="0"
     y="14.636927" />
  <g
     id="Warstwa_x0020_1">
    <g
       id="_1986074279696">
      <path
         fill-rule="evenodd"
         class="s0"
         d="m1680.8 1158.2c-136.4-111.2-245.1-214-318.4-389.4-70.1-167.5-130.1-409.9-71-596.7 16.6-52.6 50.6-113.3 64.2-171.7 42.3 60.8 34.1 125.9 113.7 223.3 633.6 776.1 2350.3 366.4 3126.6 1137.3 182.8 181.5 150.2 277.7 63 442.7 588.4 0 888.9 593.8 816.8 1035.9-52.8 323.2-116.3 350.7-142.7 464-2.3-3.6-4.2-9-5.3-11.6-1-2.5-3.8-8.5-5.1-11.7l-9.6-24.1c-3.4-8.7-6.4-19.9-13.8-36.8-12.6-28.7-18-37.7-37.5-63.5-99.6-131.6-250.2-201.2-433.9-207-504.3-16-915.7 391.9-617.3 887.3 60.3 100.1 90.7 119.5 147.4 189.8 20.5 25.4 19.3 28.8 44.1 57 103.6 117.6 127 114.6 223.1 198.1-220.7 0-271.8-28.6-438.1-67.4 35 52.3 179.6 207 266.6 340.1 74.3 113.7 151.4 263.5 184.5 405.4 69.8 299.8 13.6 809.3-164.6 939.9-21.7-45.2-23.6-121.3-37.7-181.5-69.3-296.7-421.6-702.7-636.5-846.6l168.6 707.8c-72.2-16.8-182.8-66.4-257.7-96.2-451.8-180.1-1105.6-538.9-1360.2-982.4l-33.8-50.5c0 224.3 146 624 236 758.4-265.4-61.9-605.3-338-796.1-552.2-95.8-107.4-196.1-272.9-253.9-420.2-82.5-210.1-79.2-314.4-79.2-595-97.6 112.2-202.9 555.4-151.7 775.3-304.5-203.9-379.5-669.1-352.9-1027 11.4-152.8 107-433.4 168-539.9l269.2-438.7c-172.2 115.3-297.7 171.2-451 324.2-45.5 45.5-79.4 102.3-122 130.8 0-367.3 285.9-816.1 543.5-1074.4 62.2-62.4 212-203 299.1-223.3-22-30-269.8-166.4-337-455 128.7 86.2 324.7 151.7 539.3 151.7-30.7-42-96.1-64.9-146.7-106.2zm3008.5 1558.9c-243.3-74.6-565.9-50.8-794.4 75.4-67.9 37.4-80.3 56.1-134.6 101.3-76.5 63.6-57.6 41.1-112.6 123.3 107.2-25 200.3-161.4 610.9-214.9 367.2-47.8 486.3 21.6 737.3 80.1-47.9-65.5-220.8-138.9-306.6-165.2zm-1698.9-1098.8c198.2 0 391.4 88.8 539.3 101.1 0 140.4 1.7 206 64.2 289.7 137.5 184.5 381.9 135.8 508.8-53.7-428.9-227-536.4-354-1112.3-354zm-674.2 2831.4l-2713.4 1550.5zm2713.4-1550.5l-33.7-16.8z"
         id="path1" />
    </g>
  </g>
  <metadata
     id="metadata1">
    <rdf:RDF>
      <cc:Work
         rdf:about="">
        <dc:title>logo bitsprite wite</dc:title>
      </cc:Work>
    </rdf:RDF>
  </metadata>
</svg>
